<svg xmlns="http://www.w3.org/2000/svg" width="15" height="15" viewBox="0 0 512 512"><clipPath id="a"><circle cx="256" cy="256" r="256"/></clipPath><g clip-path="url(#a)"><path fill="#F31930" d="M0 0h512v512H0V0z"/><path fill="#FFF" d="M348.8 264c0 70.6-58.2 127.9-130.1 127.9S88.6 334.6 88.6 264s58.2-127.9 130.1-127.9S348.8 193.3 348.8 264z"/><path fill="#F31830" d="M355.3 264c0 56.5-46.6 102.3-104.1 102.3S147.1 320.5 147.1 264s46.6-102.3 104.1-102.3S355.3 207.5 355.3 264z"/><path fill="#FFF" d="M374.1 204.2l-1 47.3-44.1 12 43.5 15.5-1 43.4 28.4-33.9 42.8 14.9-24.9-36.4 30.2-36.1-46.4 12.8-27.5-39.5z"/></g></svg>