<svg xmlns="http://www.w3.org/2000/svg" width="15" height="15" viewBox="0 0 512 512"><clipPath id="a"><circle cx="256" cy="256" r="256"/></clipPath><g clip-path="url(#a)"><path fill="#DE2910" d="M0 0h512v512H0V0z"/><path fill="#FFDE00" d="M175.9 167l45.1-32.8h-55.8l-17.2-53-17.2 53H74.9l45.2 32.9-17.2 53.1 45.1-32.8 45.2 32.8zm107.5-79.4l18.1-4.2-17.1-7.2 1.6-18.6-12.2 14.1-17.1-7.3 9.6 16-12.2 14 18-4.2 9.6 16zm48.1 53.6l18.3 3.1-12.9-13.3 8.7-16.4-16.7 8.2-13-13.4 2.6 18.4-16.6 8.2 18.2 3.2 2.7 18.4zm5.1 70.7l14.7-11.5-18.6.7-6.4-17.5-5.2 17.9-18.5.7 15.4 10.3-5.1 18 14.7-11.5 15.4 10.4zm-53 54.6l18-4.9-17.4-6.6.8-18.5-11.6 14.5-17.4-6.6 10.2 15.5-11.6 14.6 18-5 10.2 15.6z"/></g></svg>